# xmcd
#
# Track frame offsets: 
#        150
#        13216
#        26385
#        37645
#        51009
#        61856
#        73805
#        87680
#        100137
#        113943
#        127201
#        139468
#        152285
#        166018
#        178377
#        192403
#        206593
#        219906
#        232510
#        245247
#
# Disc length: 3455 seconds
#
# Revision: 1
# Processed by: cddbd v1.5.2PL0 Copyright (c) Steve Scherf et al.
# Submitted via: ExactAudioCopyFreeDBPlugin 1.0
#
DISCID=180d7d14
DTITLE=Billie Holliday - The Incomparable Vol 5
DYEAR=1900
DGENRE=
TTITLE0=Time On My Hands
TTITLE1=I'm All For You
TTITLE2=I Hear Music
TTITLE3=The Same Old Story
TTITLE4=Practice Makes Perfect
TTITLE5=St Louis Blues
TTITLE6=Loveless Love
TTITLE7=Let's Do It (Let's Fall In Love)
TTITLE8=Georgia On My Mind
TTITLE9=I'm In A Low Down Groove
TTITLE10=God Bless The Child
TTITLE11=Am I Blue?
TTITLE12=Solitude
TTITLE13=I Cover The Waterfront
TTITLE14=Love Me Or Leave Me
TTITLE15=Gloomy Sunday
TTITLE16=Wherever You Are
TTITLE17=Mandy Is Two
TTITLE18=It's A Sin To Tell A Lie
TTITLE19=Travelin' Light
EXTD=
EXTT0=
EXTT1=
EXTT2=
EXTT3=
EXTT4=
EXTT5=
EXTT6=
EXTT7=
EXTT8=
EXTT9=
EXTT10=
EXTT11=
EXTT12=
EXTT13=
EXTT14=
EXTT15=
EXTT16=
EXTT17=
EXTT18=
EXTT19=
PLAYORDER=
